{"title":"Torrente.4.Lethal.Crisis.2011.BRRip.x264.AC3-Psycho","uid":6742731,"size":1057690909,"categoryP":"video","categoryS":"movies","magnet":"?xt=urn:btih:7b95c5804e4ffd52a8c8bd542109ff009559f577&amp;dn=Torrente.4.Lethal.Crisis.2011.BRRip.x264.AC3-Psycho&amp;tr=udp%3A%2F%2Ftracker.openbittorrent.com%3A80&amp;tr=udp%3A%2F%2Fopen.demonii.com%3A1337&amp;tr=udp%3A%2F%2Ftracker.coppersurfer.tk%3A6969&amp;tr=udp%3A%2F%2Fexodus.desync.com%3A6969","seeders":1,"leechers":0,"uploader":"Francisco1206","files":-1,"time":1318575699,"description":"La obra cumbre del cine chusco (The masterpiece of earthy films)\n\nIMDB rating: 5.1/10 (from 903 users)\n\nSOURCE: Torrente.4.Lethal.Crisis.2011.BluRay.720p.x264.DTS.RoSubbed-HDChina\n\nSAMPLE INCLUDED: 60s/10.4mb\n\n\n\nCAST:\n\nSantiago Segura..............Torrente\nCarlos Areces................MÃƒÂºsico boda\nGoyo JimÃƒÂ©nez.................Jefe Seguridad Rocamora\nJavier GutiÃƒÂ©rrez.............SolÃƒÂ­s\nErnesto Sevilla..............Camarero boda\nMaria Lapiedra...............Melanie Rocamora\nFrancisco....................Rocamora (as Francisco GonzÃƒÂ¡lez)\nTomÃƒÂ¡s Pozzi..................Paparazzi boda\nFernando Esteso..............Cuadrado\nKiko Rivera..................Julito Rin Rin\nDolores GonzÃƒÂ¡lez.............Suegra Dominguero\nSÃƒÂ­lvia Abril.................Encarni - SeÃƒÂ±ora Dominguero\nCÃƒÂ©sar Vallejos...............Manolito - NiÃƒÂ±o Dominguero\nCarmen de Mairena............Vieja de las bolsas\nLuis Carlos Huapaya..........Pacheco (as Luis Carlos Huapaya 'Luchito') \n\nGeneral\n*******\nFormat                                   : Matroska\nFormat version                           : Version 2\nFile size                                : 998 MiB\nDuration                                 : 1h 36mn\nOverall bit rate                         : 1 445 Kbps\nEncoded date                             : UTC 2011-10-14 04:53:33\nWriting application                      : mkvmerge v5.0.0 ('Die Wahre Liebe') built on Sep 25 2011 20:33:49\nWriting library                          : libebml v1.2.2 + libmatroska v1.3.0\n\nVideo\n*****\nID                                       : 1\nFormat                                   : AVC\nFormat/Info                              : Advanced Video Codec\nFormat profile                           : &lt;a class=&quot;__cf_email__&quot; href=&quot;/cdn-cgi/l/email-protection&quot; data-cfemail=&quot;480529212608047b6678&quot;&gt;[email&amp;#160;protected]&lt;/a&gt;&lt;script cf-hash='f9e31' type=&quot;text/javascript&quot;&gt;\n/* &lt;![CDATA[ */!function(){try{var t=&quot;currentScript&quot;in document?document.currentScript:function(){for(var t=document.getElementsByTagName(&quot;script&quot;),e=t.length;e--;)if(t[e].getAttribute(&quot;cf-hash&quot;))return t[e]}();if(t&amp;&amp;t.previousSibling){var e,r,n,i,c=t.previousSibling,a=c.getAttribute(&quot;data-cfemail&quot;);if(a){for(e=&quot;&quot;,r=parseInt(a.substr(0,2),16),n=2;a.length-n;n+=2)i=parseInt(a.substr(n,2),16)^r,e+=String.fromCharCode(i);e=document.createTextNode(e),c.parentNode.replaceChild(e,c)}}}catch(u){}}();/* ]]&gt; */&lt;/script&gt;\nFormat settings, CABAC                   : Yes\nFormat settings, ReFrames                : 4 frames\nMuxing mode                              : Header stripping\nCodec ID                                 : V_MPEG4/ISO/AVC\nDuration                                 : 1h 36mn\nBit rate                                 : 1 060 Kbps\nWidth                                    : 720 pixels\nHeight                                   : 384 pixels\nDisplay aspect ratio                     : 1.875\nFrame rate                               : 23.976 fps\nColor space                              : YUV\nChroma subsampling                       : 4:2:0\nBit depth                                : 8 bits\nScan type                                : Progressive\nBits/(Pixel*Frame)                       : 0.160\nStream size                              : 713 MiB (71%)\nWriting library                          : x264 core 112\n\n\nAudio\n*****\nID                                       : 2\nFormat                                   : AC-3\nFormat/Info                              : Audio Coding 3\nMode extension                           : CM (complete main)\nMuxing mode                              : Header stripping\nCodec ID                                 : A_AC3\nDuration                                 : 1h 36mn\nBit rate mode                            : Constant\nBit rate                                 : 384 Kbps\nChannel(s)                               : 6 channels\nChannel positions                        : Front: L C R, Side: L R, LFE\nSampling rate                            : 48.0 KHz\nBit depth                                : 16 bits\nCompression mode                         : Lossy\nStream size                              : 265 MiB (27%)\nLanguage                                 : Spanish\n\n\nText(subtitles)\n***************\nID                                       : 3\nFormat                                   : UTF-8\nCodec ID                                 : S_TEXT/UTF8\nCodec ID/Info                            : UTF-8 Plain Text\nLanguage                                 : ROMANiAN\nLanguage                                 : ENGLISH\n\nPLEASE SEED FOR AS LONG AS POSSIBLE!\t\n\n\n\n\n","torrent":{"xt":"urn:btih:7b95c5804e4ffd52a8c8bd542109ff009559f577","amp;dn":"Torrente.4.Lethal.Crisis.2011.BRRip.x264.AC3-Psycho","amp;tr":["udp%3A%2F%2Ftracker.openbittorrent.com%3A80","udp%3A%2F%2Fopen.demonii.com%3A1337","udp%3A%2F%2Ftracker.coppersurfer.tk%3A6969","udp%3A%2F%2Fexodus.desync.com%3A6969"],"infoHash":"7b95c5804e4ffd52a8c8bd542109ff009559f577","infoHashBuffer":{"type":"Buffer","data":[123,149,197,128,78,79,253,82,168,200,189,84,33,9,255,0,149,89,245,119]},"announce":[],"urlList":[]}}